<svg xmlns="http://www.w3.org/2000/svg" xmlns:xlink="http://www.w3.org/1999/xlink" id="layer_1" x="0px" y="0px" viewBox="0 0 437.6 282" style="enable-background:new 0 0 437.6 282;" xml:space="preserve">
<style type="text/css">
	._x005B_По_x0020_умолчанию_x005D_{fill:#FFFFFF;stroke:#000000;stroke-miterlimit:10;}
	.Тень{fill:#FFFFFF;}
	.st0{fill:#7893A5;}
	.st1{fill:#92ABBE;}
	.st2{fill:#E8F3F5;}
	.st3{fill:#44CC7C;}
	.st4{fill:#FFFFFF;}
	.st5{fill:#291A6D;}
	.st6{fill:#FAC22A;}
	.st7{fill:#C0D8DF;}
	.st8{fill:#9DB6C9;}
	.st9{fill:#98B1C4;}
	.st10{fill:#DBE2E6;}
	.st11{fill:#FD3F54;}
	.st12{fill:#F9B502;}
	.st13{fill:#CAE2E9;}
	.st14{fill:#42319C;}
	.st15{fill:#F0C7BC;}
	.st16{fill:#E62D47;}
	.st17{fill:#F3BFAD;}
	.st18{fill:#161052;}
	.st19{fill:#C4DCE3;}
	.st20{fill:#F4CDBF;}
	.st21{fill:#F83F54;}
	.st22{fill:#F0C6BB;}
	.st23{fill:#F33F54;}
	.st24{fill:#F2BEAC;}
	.st25{fill:#F3CCBE;}
	.st26{clip-path:url(#SVGID_2_);}
	.st27{fill:#EECABF;}
	.st28{fill:#310078;}
</style>
<g>
	<g>
		<rect x="233.3" y="126.7" class="st0" width="34" height="69.7"></rect>
		<path class="st1" d="M303.5,197H197c-0.4,0-0.6-0.4-0.4-0.8l5.5-9.1c2.8-4.7,8.4-7.6,14.5-7.6h67.4c6.1,0,11.7,2.9,14.5,7.6    l5.5,9.1C304.1,196.6,303.9,197,303.5,197z"></path>
		<path class="st1" d="M352.4,168.7H148c-4.2,0-7.7-3.4-7.7-7.7V33.4c0-4.2,3.4-7.7,7.7-7.7h204.4c4.2,0,7.7,3.4,7.7,7.7V161    C360.1,165.2,356.7,168.7,352.4,168.7z"></path>
		<path class="st2" d="M348.2,152.7H152.3c-2.1,0-3.8-1.7-3.8-3.8V37.4c0-2.1,1.7-3.8,3.8-3.8h195.9c2.1,0,3.8,1.7,3.8,3.8v111.4    C352,151,350.3,152.7,348.2,152.7z"></path>
		<g>
			<path class="st3" d="M148.4,35.6v14.3H352V35.6c0-1.1-0.9-2-2-2H150.4C149.3,33.6,148.4,34.5,148.4,35.6z"></path>
			<g>
				<path class="st4" d="M172.4,41.7c0-1.1,0.9-1.9,1.9-1.9c1.1,0,1.9,0.9,1.9,1.9c0,1.1-0.9,1.9-1.9,1.9      C173.3,43.7,172.4,42.8,172.4,41.7z"></path>
				<path class="st4" d="M163.4,41.7c0-1.1,0.9-1.9,1.9-1.9c1.1,0,1.9,0.9,1.9,1.9c0,1.1-0.9,1.9-1.9,1.9      C164.3,43.7,163.4,42.8,163.4,41.7z"></path>
				<path class="st4" d="M154.5,41.7c0-1.1,0.9-1.9,1.9-1.9c1.1,0,1.9,0.9,1.9,1.9c0,1.1-0.9,1.9-1.9,1.9      C155.3,43.7,154.5,42.8,154.5,41.7z"></path>
			</g>
			<g>
				<path class="st4" d="M334.7,41.7c0-3,2.5-5.5,5.5-5.5s5.5,2.5,5.5,5.5c0,3-2.5,5.5-5.5,5.5S334.7,44.8,334.7,41.7z"></path>
				<g>
					<path class="st5" d="M337.8,44.6c0.1,0,0.2,0,0.3-0.1l4.8-4.8c0.2-0.2,0.2-0.4,0-0.6c-0.2-0.2-0.4-0.2-0.6,0l-4.8,4.8       c-0.2,0.2-0.2,0.4,0,0.6C337.6,44.5,337.7,44.6,337.8,44.6z"></path>
					<path class="st5" d="M342.6,44.6c0.1,0,0.2,0,0.3-0.1c0.2-0.2,0.2-0.4,0-0.6l-4.8-4.8c-0.2-0.2-0.4-0.2-0.6,0       c-0.2,0.2-0.2,0.4,0,0.6l4.8,4.8C342.4,44.5,342.5,44.6,342.6,44.6z"></path>
				</g>
			</g>
		</g>
	</g>
	<g>
		<g>
			<path class="st6" d="M195.9,191.2c0.1,0.1,0.1,0.3,0.2,0.4c0,0,0.2-0.1,0.4-0.1c2.2-0.7,11.8-4.1,13.6-7.7l-7.6,0.3l8.8-3.1     c1.1-2.7,1.7-5.8,1.6-9.2l-6.2,0.5l5.9-3.4c-0.4-3-1.5-6.3-3.4-9.9c0,0-6.1,1.6-11.5,8.6l2.9,4.5L197,169c-1.5,2.3-3,5-4.1,8.3     C191.3,181.7,194.1,186.9,195.9,191.2z"></path>
			<path class="st4" d="M195.9,191.2c0.1,0.1,0.1,0.3,0.2,0.4c0,0,0.2-0.1,0.4-0.1c4.3-13,9.4-24.3,9.5-24.5c0.1-0.2,0-0.4-0.2-0.4     c-0.2-0.1-0.4,0-0.4,0.2C205.3,166.9,200.2,178.2,195.9,191.2z"></path>
		</g>
		<g>
			<path class="st6" d="M191.4,209.9c0,0.2-0.1,0.4-0.1,0.6c0,0-0.2,0-0.6,0c-2.8-0.2-15.1-1.1-18.4-4.7l9-2l-11.3-0.8     c-2.1-2.9-3.9-6.2-4.8-10.2l7.4-1.4l-8-2.1c-0.4-3.7-0.3-7.9,0.8-12.7c0,0,7.7,0,16.2,6.4l-2,6.1l3.6-4.8     c2.5,2.2,5.1,4.9,7.5,8.4C193.7,197.3,192.1,204.3,191.4,209.9z"></path>
			<path class="st4" d="M191.4,209.9c0,0.2-0.1,0.4-0.1,0.6c0,0-0.2,0-0.6,0c-9.2-13.8-18.8-25.5-18.9-25.7     c-0.1-0.2-0.1-0.4,0.1-0.6c0.2-0.1,0.4-0.1,0.6,0.1C172.6,184.4,182.2,196,191.4,209.9z"></path>
		</g>
		<g>
			<path class="st6" d="M191.5,213.8c-0.2,0-0.3-0.1-0.5-0.1c0,0,0-0.2,0-0.5c0.3-2.5,1.5-13.4,4.8-16.3l1.5,8.1l1.1-10.1     c2.6-1.8,5.7-3.2,9.3-3.9l1,6.6l2.1-7c3.3-0.3,7,0.1,11.2,1.1c0,0-0.2,6.8-6.3,14.2l-5.4-2l4.2,3.3c-2,2.2-4.6,4.3-7.8,6.4     C202.6,216.3,196.4,214.6,191.5,213.8z"></path>
			<path class="st4" d="M191.5,213.8c-0.2,0-0.3-0.1-0.5-0.1c0,0,0-0.2,0-0.5c12.6-7.7,23.4-15.8,23.5-15.9c0.2-0.1,0.4-0.1,0.5,0.1     c0.1,0.2,0.1,0.4-0.1,0.5C214.8,198,204.1,206.1,191.5,213.8z"></path>
		</g>
		<path class="st6" d="M189.3,227.1C189.3,227.1,189.3,227.1,189.3,227.1c0.2,0,0.4-0.2,0.4-0.4c-0.1-13.9,7.1-35.8,7.2-36    c0.1-0.2,0-0.4-0.2-0.5c-0.2-0.1-0.4,0-0.5,0.2c-0.1,0.2-7.3,22.3-7.2,36.3C188.9,227,189.1,227.1,189.3,227.1z"></path>
		<g>
			<polygon class="st7" points="181.4,242.9 197.1,242.9 198.8,223.4 179.7,223.4    "></polygon>
			<path class="st8" d="M178.7,225.6h21.2c0.7,0,1.3-0.9,1.3-2.1l0,0c0-1.2-0.6-2.1-1.3-2.1h-21.2c-0.7,0-1.3,0.9-1.3,2.1l0,0     C177.4,224.6,178,225.6,178.7,225.6z"></path>
		</g>
	</g>
	<g>
		<path class="st9" d="M364.5,153.4l-58.2-0.3l28.7-32.5c0.1-0.1,0.2-0.2,0.4-0.3c0.8-0.4,1.7-0.4,2.5,0c0.2,0.1,0.4,0.3,0.6,0.5    L364.5,153.4z M310.6,151.9l49.8,0.3l-22.8-30.8c-0.6-0.3-1.3-0.4-1.9,0L310.6,151.9z"></path>
		<g>
			<g>
				
					<rect x="333.9" y="44.2" transform="matrix(0.8921 -0.4518 0.4518 0.8921 19.2375 170.2061)" class="st7" width="64.3" height="1.2"></rect>
				<path class="st4" d="M403.2,30.2c-0.4-2-2.2-3.4-4.2-3.4h-0.5c-2,0-3.8,1.4-4.2,3.4l-5.4,21.9h19.8L403.2,30.2z M394.2,34.9      l8.9,0l0.1,0.3l-4.6,5.1l-4.5-5.1L394.2,34.9z M397.9,41.2l-7.2,8.2l3.2-12.8L397.9,41.2z M398.6,42l7.9,8.9h-15.8L398.6,42z       M399.4,41.2l4.1-4.7l3.2,12.9L399.4,41.2z M398.4,27.9h0.5c1.5,0,2.8,1.1,3.1,2.5l0.8,3.3l-8.4,0l0.8-3.3      C395.6,29,396.9,27.9,398.4,27.9z M427.8,58.5H323.9l-15.3,16.1h29.2l0.1,0.1l0-0.1h47.5v140h21.4v-140h21V58.5z M426.6,71.8      l-12.8-12.1h12.8V71.8z M352.6,60.1l-0.3,13.3h-13.4L352.6,60.1z M337.9,72.7l0.2-13.1h13.3L337.9,72.7z M366.7,71.9l-13-12.3      h13.1L366.7,71.9z M368.1,59.6h13.3l-13.5,13.1L368.1,59.6z M382.6,60.1l-0.3,13.3h-13.4L382.6,60.1z M398.1,59.6h13.3      l-13.5,13.1L398.1,59.6z M396.8,71.9l-13-12.3h13.1L396.8,71.9z M324.4,59.6h12.5l-0.2,12.3l-12.7-12L324.4,59.6z M322.5,61.6      l-0.2,11.8h-11L322.5,61.6z M323.4,73.4l0.3-12.2l12.9,12.2H323.4z M353.5,73.4l0.3-12.2l12.9,12.2H353.5z M383.5,73.4l0.3-12.2      l12.8,12.1L383.5,73.4z M386.6,84.9l8.3,8.3l-8.3,8.3V84.9z M387.5,102.9l8.5-8.6l8.5,8.6H387.5z M405.1,104.6l-9.1,9.1      l-9.1-9.1H405.1z M386.6,106.6l8.3,8.3l-8.3,8.3V106.6z M387.5,124.7l8.5-8.6l8.5,8.6H387.5z M405.1,126.4l-9.1,9.1l-9.1-9.1      H405.1z M386.6,128.4l8.3,8.3l-8.3,8.3V128.4z M387.5,146.5l8.5-8.6l8.5,8.6H387.5z M405.1,148.2l-9.1,9.1l-9.1-9.1H405.1z       M386.6,150.1l8.3,8.3l-8.3,8.3V150.1z M387.5,168.2l8.5-8.6l8.5,8.6H387.5z M405.1,169.9l-9.1,9.1l-9.1-9.1H405.1z       M386.6,171.9l8.3,8.3l-8.3,8.3V171.9z M396.1,181.4l8.5,8.6h-17.1L396.1,181.4z M386.6,193.7l8.3,8.3l-8.3,8.3V193.7z       M387,191.7h18.2l-9.1,9.1L387,191.7z M405.5,193.7v16.6l-8.3-8.3L405.5,193.7z M397.2,180.2l8.3-8.3v16.6L397.2,180.2z       M397.2,158.5l8.3-8.3v16.6L397.2,158.5z M397.2,136.7l8.3-8.3V145L397.2,136.7z M397.2,114.9l8.3-8.3v16.6L397.2,114.9z       M397.2,93.2l8.3-8.3v16.6L397.2,93.2z M396.1,92l-9.1-9.1h18.2L396.1,92z M386.6,213.4v-0.7l9.5-9.5l9.5,9.5v0.7H386.6z       M405.5,81.2h-18.9v-6.6h18.9V81.2z M399,73.3l13.6-13.2l-0.3,13.3L399,73.3z M413.5,73.4l0.3-12.2l12.9,12.2v0H413.5z"></path>
				<rect x="386" y="73.9" class="st7" width="20.4" height="7.9"></rect>
				<g>
					<path class="st10" d="M406.3,49.7v12.6c0,0.3-0.2,0.6-0.4,0.7l-4.5,2.6c-0.6,0.3-1.3-0.1-1.3-0.7V49.7c0-0.5,0.4-0.9,0.9-0.9       h4.5C405.9,48.8,406.3,49.2,406.3,49.7z"></path>
					<path class="st10" d="M395.8,49.7v22.8c0,0.5-0.4,0.9-0.9,0.9h-14.1c-0.6,0-1-0.6-0.8-1.2l8.6-18.8c1.3-2.3,3.5-3.9,6-4.5       C395.3,48.7,395.8,49.1,395.8,49.7z"></path>
					<polygon class="st4" points="396.7,50.4 384.3,74.5 387.4,74.1 397.9,52.5      "></polygon>
					<polygon class="st4" points="403.3,47.3 388.3,75.9 390.2,75.1 403.3,49      "></polygon>
					<polygon class="st4" points="407.2,53.8 398.1,70.9 400.1,70.1 407.3,55.5      "></polygon>
					<path class="st5" d="M406.2,45.4H396c-4.3,0-8.4,2.3-10.6,6l-9.4,20.5c-1,2.2,0.6,4.6,3,4.6h26.2c0,0,0.1,0,0.1,0       c2.1-0.1,3.7-1.7,3.7-3.8V48.2C409,46.6,407.8,45.4,406.2,45.4z M395.8,72.5c0,0.5-0.4,0.9-0.9,0.9h-14.1c-0.6,0-1-0.6-0.8-1.2       l8.6-18.8c1.3-2.3,3.5-3.9,6-4.5c0.5-0.1,1.1,0.3,1.1,0.8V72.5z M406.3,62.2c0,0.3-0.2,0.6-0.4,0.7l-4.5,2.6       c-0.6,0.3-1.3-0.1-1.3-0.7V49.7c0-0.5,0.4-0.9,0.9-0.9h4.5c0.5,0,0.9,0.4,0.9,0.9V62.2z"></path>
				</g>
				<g>
					<rect x="334.4" y="75.2" class="st9" width="0.7" height="20"></rect>
					<rect x="338.7" y="75.7" class="st9" width="0.7" height="20"></rect>
					<rect x="335.5" y="99.6" class="st9" width="2.4" height="4.5"></rect>
					<path class="st5" d="M336.7,93.8c-1.8,0-3.3,1.5-3.3,3.3c0,1.8,1.5,3.3,3.3,3.3c1.8,0,3.3-1.5,3.3-3.3       C340.1,95.3,338.6,93.8,336.7,93.8z M336.7,99c-1,0-1.8-0.8-1.8-1.8c0-1,0.8-1.8,1.8-1.8c1,0,1.8,0.8,1.8,1.8       C338.6,98.2,337.7,99,336.7,99z"></path>
					<path class="st7" d="M338.3,114.9c-0.4-0.2-0.7-0.6-0.7-1v-3.6h-1.7v5.2c0,0.6,0.5,1,1,1c0.7,0,1.3,0.3,1.8,0.8       c0.4,0.5,0.7,1.1,0.7,1.8c0,0.9-0.4,1.5-1.1,1.9c-0.3,0.2-0.6,0.3-1,0.3c-0.2,0-0.3,0-0.5,0c-0.2,0-0.3,0-0.5,0       c-0.4-0.1-0.7-0.2-1-0.3c-0.7-0.4-1.1-1.1-1.1-1.9c0-0.5-0.4-1-0.9-1c-0.5,0-1,0.4-1,0.9c0,1.2,0.5,2.2,1.3,3       c0.2,0.2,0.4,0.3,0.6,0.5c0.7,0.5,1.6,0.8,2.6,0.8c1,0,1.9-0.3,2.6-0.8c0.2-0.1,0.4-0.3,0.6-0.5c0.8-0.7,1.3-1.8,1.3-3       C341.2,117.2,340,115.6,338.3,114.9z"></path>
					<path class="st5" d="M336.7,111.7L336.7,111.7c-2.5,0-4.5-2-4.5-4.5v0c0-2.5,2-4.5,4.5-4.5h0c2.5,0,4.5,2,4.5,4.5v0       C341.2,109.7,339.2,111.7,336.7,111.7z"></path>
					<circle class="st9" cx="337.3" cy="75" r="7.5"></circle>
					<path class="st7" d="M341.8,75c0-2.5-2-4.5-4.5-4.5s-4.5,2-4.5,4.5c0,2.5,2,4.5,4.5,4.5S341.8,77.5,341.8,75z"></path>
				</g>
			</g>
		</g>
		<path class="st9" d="M338.5,120.7c-0.9-0.6-2.4-0.9-3.3-0.3l0,0.4c0,0,0.3,0.1,0.5,0.4l0.1,0.2c0.6-0.3,1.3-0.3,1.9,0l22.8,31.4    l-49.8-0.3l22.4-27.8c0,0-0.7-0.8-0.8-1l-25.9,29.9l58.2,0.4L338.5,120.7z"></path>
		<path class="st9" d="M418.5,222h-44.9v-1.3c0-5,4.1-9.1,9.1-9.1h26.7c5,0,9.1,4.1,9.1,9.1V222z"></path>
	</g>
	<g>
		<path class="st4" d="M246.3,146.6h-79.4c-4.1,0-7.4-3.3-7.4-7.4v-31.9c0-4.1,3.3-7.4,7.4-7.4h79.4c4.1,0,7.4,3.3,7.4,7.4v31.9    C253.7,143.3,250.4,146.6,246.3,146.6z"></path>
		<path class="st2" d="M245.5,143.8h-77.9c-2.5,0-4.4-2-4.4-4.4v-32.2c0-2.5,2-4.4,4.4-4.4h77.9c2.5,0,4.4,2,4.4,4.4v32.2    C250,141.8,248,143.8,245.5,143.8z"></path>
		<path class="st4" d="M216.4,119.5c0-5.4-4.4-9.8-9.8-9.8c-5.4,0-9.8,4.4-9.8,9.8c0,5.4,4.4,9.8,9.8,9.8    C212,129.3,216.4,124.9,216.4,119.5z"></path>
		<path class="st11" d="M212.2,119l-7.7-4.5c-0.4-0.2-0.9,0.1-0.9,0.5v8.9c0,0.5,0.5,0.7,0.9,0.5l7.7-4.5    C212.6,119.8,212.6,119.3,212.2,119z"></path>
		<path class="st4" d="M245.9,138.1c0,0.9-0.7,1.7-1.7,1.7H169c-0.9,0-1.7-0.7-1.7-1.7c0-0.9,0.7-1.7,1.7-1.7h75.2    C245.1,136.4,245.9,137.2,245.9,138.1z"></path>
		<path class="st11" d="M211.3,136.4v3.3H169c-0.9,0-1.7-0.7-1.7-1.7c0-0.9,0.7-1.7,1.7-1.7H211.3z"></path>
	</g>
	<g>
		<path class="st4" d="M272.3,92.3H164.1c-2.3,0-4.2-1.9-4.2-4.2V64.9c0-2.3,1.9-4.2,4.2-4.2h108.1c2.3,0,4.2,1.9,4.2,4.2v23.2    C276.5,90.5,274.6,92.3,272.3,92.3z"></path>
		<g>
			<g>
				<path class="st2" d="M188.4,69.7L188.4,69.7c0-0.8,0.6-1.4,1.4-1.4h17.7c0.8,0,1.4,0.6,1.4,1.4l0,0c0,0.8-0.6,1.4-1.4,1.4h-17.7      C189,71.1,188.4,70.4,188.4,69.7z"></path>
				<path class="st2" d="M210.8,69.7L210.8,69.7c0-0.8,0.6-1.4,1.4-1.4h17.7c0.8,0,1.4,0.6,1.4,1.4l0,0c0,0.8-0.6,1.4-1.4,1.4h-17.7      C211.4,71.1,210.8,70.4,210.8,69.7z"></path>
				<path class="st2" d="M188.4,74.8L188.4,74.8c0-0.8,0.6-1.4,1.4-1.4h11.9c0.8,0,1.4,0.6,1.4,1.4l0,0c0,0.8-0.6,1.4-1.4,1.4h-11.9      C189,76.2,188.4,75.6,188.4,74.8z"></path>
				<path class="st2" d="M205.4,74.7L205.4,74.7c0-0.8,0.6-1.4,1.4-1.4h6.6c0.8,0,1.4,0.6,1.4,1.4l0,0c0,0.8-0.6,1.4-1.4,1.4h-6.6      C206,76.2,205.4,75.5,205.4,74.7z"></path>
			</g>
			<g>
				<path class="st2" d="M188.1,80.2L188.1,80.2c0-0.8,0.6-1.4,1.4-1.4h14.3c0.8,0,1.4,0.6,1.4,1.4l0,0c0,0.8-0.6,1.4-1.4,1.4h-14.3      C188.8,81.6,188.1,81,188.1,80.2z"></path>
				<path class="st2" d="M188.1,85.4L188.1,85.4c0-0.8,0.6-1.4,1.4-1.4h11.9c0.8,0,1.4,0.6,1.4,1.4l0,0c0,0.8-0.6,1.4-1.4,1.4h-11.9      C188.8,86.8,188.1,86.2,188.1,85.4z"></path>
				<path class="st2" d="M207,80.2L207,80.2c0-0.8,0.6-1.4,1.4-1.4h11.9c0.8,0,1.4,0.6,1.4,1.4l0,0c0,0.8-0.6,1.4-1.4,1.4h-11.9      C207.6,81.6,207,81,207,80.2z"></path>
			</g>
		</g>
		<path class="st12" d="M184,76.7c0-4.9-4-8.9-8.9-8.9c-4.9,0-8.9,4-8.9,8.9c0,4.9,4,8.9,8.9,8.9C180,85.6,184,81.6,184,76.7z"></path>
		<g>
			<path class="st4" d="M177.3,73.8c0-1.2-1-2.2-2.2-2.2c-1.2,0-2.2,1-2.2,2.2c0,1.2,1,2.2,2.2,2.2C176.3,76,177.3,75,177.3,73.8z"></path>
			<path class="st4" d="M179.3,81.8c0-0.2,0.1-0.3,0.1-0.5c0-2.4-1.9-4.3-4.3-4.3c-2.4,0-4.3,1.9-4.3,4.3c0,0.2,0,0.3,0.1,0.5H179.3     z"></path>
		</g>
		<g>
			<path class="st13" d="M265.8,70.8v12.4c0,0.9-0.7,1.6-1.6,1.6h-18.1c-0.9,0-1.6-0.7-1.6-1.6V70.8c0-0.9,0.7-1.6,1.6-1.6h18.1     C265,69.2,265.8,69.9,265.8,70.8z"></path>
			<path class="st2" d="M265.8,77.8v6.4c0,0.3-0.3,0.6-0.6,0.6h-20.1c-0.3,0-0.6-0.3-0.6-0.6v-1.2l4.7-5.2c0.2-0.3,0.6-0.3,0.8,0     l3.5,3.6c0.2,0.2,0.6,0.2,0.8,0l7.2-7.8c0.2-0.3,0.7-0.2,0.9,0L265.8,77.8z"></path>
			<path class="st2" d="M251.4,73.1c0-1.2-1-2.1-2.1-2.1c-1.2,0-2.1,1-2.1,2.1c0,1.2,1,2.1,2.1,2.1     C250.5,75.3,251.4,74.3,251.4,73.1z"></path>
		</g>
	</g>
	<g>
		<path class="st2" d="M125,140v88.8c0,3.8-3.1,6.8-6.8,6.8H11.9c-3.8,0-6.8-3.1-6.8-6.8V140c0-3.8,3.1-6.8,6.8-6.8h106.3    C121.9,133.2,125,136.2,125,140z"></path>
		<path class="st12" d="M125,140v9.1H5V140c0-3.8,3.1-6.8,6.8-6.8h106.3C121.9,133.2,125,136.2,125,140z"></path>
		<g>
			<path class="st4" d="M17.2,141.1c0-1-0.8-1.9-1.9-1.9c-1,0-1.9,0.8-1.9,1.9c0,1,0.8,1.9,1.9,1.9C16.3,143,17.2,142.2,17.2,141.1z     "></path>
			<path class="st4" d="M25.9,141.1c0-1-0.8-1.9-1.9-1.9c-1,0-1.9,0.8-1.9,1.9c0,1,0.8,1.9,1.9,1.9C25.1,143,25.9,142.2,25.9,141.1z     "></path>
			<path class="st4" d="M34.7,141.1c0-1-0.8-1.9-1.9-1.9c-1,0-1.9,0.8-1.9,1.9c0,1,0.8,1.9,1.9,1.9C33.8,143,34.7,142.2,34.7,141.1z     "></path>
		</g>
		<path class="st4" d="M118,141.1c0-3-2.4-5.4-5.4-5.4c-3,0-5.4,2.4-5.4,5.4c0,3,2.4,5.4,5.4,5.4C115.6,146.5,118,144.1,118,141.1z"></path>
		<g>
			<path class="st14" d="M115,143.9c-0.1,0-0.2,0-0.3-0.1l-4.7-4.7c-0.2-0.2-0.2-0.4,0-0.6c0.2-0.2,0.4-0.2,0.6,0l4.7,4.7     c0.2,0.2,0.2,0.4,0,0.6C115.2,143.9,115.1,143.9,115,143.9z"></path>
			<path class="st14" d="M110.3,143.9c-0.1,0-0.2,0-0.3-0.1c-0.2-0.2-0.2-0.4,0-0.6l4.7-4.7c0.2-0.2,0.4-0.2,0.6,0     c0.2,0.2,0.2,0.4,0,0.6l-4.7,4.7C110.5,143.9,110.4,143.9,110.3,143.9z"></path>
		</g>
		<g>
			<path class="st7" d="M59,228H18.6c-3.6,0-6.4-2.9-6.4-6.4v-40.4c0-3.6,2.9-6.4,6.4-6.4H59c3.6,0,6.4,2.9,6.4,6.4v40.4     C65.5,225.1,62.6,228,59,228z M18.6,176.2c-2.7,0-4.9,2.2-4.9,4.9v40.4c0,2.7,2.2,4.9,4.9,4.9H59c2.7,0,4.9-2.2,4.9-4.9v-40.4     c0-2.7-2.2-4.9-4.9-4.9H18.6z"></path>
			<path class="st7" d="M34.4,198.6h-16v-16h16V198.6z M19.9,197h13v-13h-13V197z"></path>
			<polygon class="st7" points="33,193.2 30.6,190.4 28.3,193.1 23.5,186.8 19.7,191.1 18.5,190.1 23.6,184.4 28.4,190.6 30.6,188      34.2,192.2    "></polygon>
			<rect x="19.1" y="194.3" class="st7" width="14.5" height="1.5"></rect>
			<path class="st7" d="M59.7,191H39.8v-8.4h19.9V191z M41.4,189.4h16.8v-5.3H41.4V189.4z"></path>
			<rect x="39.5" y="182.2" class="st7" width="2.3" height="2.3"></rect>
			<rect x="39.5" y="189.1" class="st7" width="2.3" height="2.3"></rect>
			<rect x="57.8" y="182.2" class="st7" width="2.3" height="2.3"></rect>
			<rect x="57.8" y="189.1" class="st7" width="2.3" height="2.3"></rect>
			<path class="st7" d="M32.8,170.4H12.9v-14.5h19.9V170.4z M14.4,168.9h16.8v-11.5H14.4V168.9z"></path>
			<rect x="12.5" y="168.5" class="st7" width="2.3" height="2.3"></rect>
			<rect x="30.9" y="168.5" class="st7" width="2.3" height="2.3"></rect>
			<rect x="12.5" y="155.5" class="st7" width="2.3" height="2.3"></rect>
			<rect x="30.9" y="155.5" class="st7" width="2.3" height="2.3"></rect>
			<path class="st7" d="M55.6,219.7h-1.2v-1.5h1.2c0.2,0,0.3,0,0.5,0l0.3,1.5C56.1,219.7,55.9,219.7,55.6,219.7z M52.2,219.7H51     v-1.5h1.2V219.7z M48.7,219.7h-1.2v-1.5h1.2V219.7z M45.2,219.7h-1.2v-1.5h1.2V219.7z M41.5,218.9c-0.4-0.3-0.7-0.6-1-1l1.2-0.9     c0.2,0.2,0.4,0.5,0.6,0.6L41.5,218.9z M58.8,218.3l-1.1-1c0.2-0.2,0.4-0.5,0.5-0.8l1.4,0.6C59.4,217.6,59.1,218,58.8,218.3z      M41.1,215.4l-1.5,0c0-0.5,0.1-0.9,0.2-1.4l1.4,0.5C41.2,214.8,41.1,215.1,41.1,215.4z M58.3,214.7c-0.1-0.3-0.2-0.6-0.4-0.8     l1.3-0.8c0.3,0.4,0.4,0.8,0.6,1.3L58.3,214.7z M42.4,213.1l-0.8-1.3c0.4-0.3,0.8-0.4,1.3-0.6l0.4,1.5     C42.9,212.8,42.6,212.9,42.4,213.1z M56.6,212.8c-0.3-0.1-0.6-0.2-0.9-0.2l0-1.5c0.5,0,0.9,0.1,1.4,0.3L56.6,212.8z M53.4,212.6     h-1.2v-1.5h1.2V212.6z M49.9,212.6h-1.2v-1.5h1.2V212.6z M46.5,212.6h-1.2v-1.5h1.2V212.6z"></path>
			<g>
				<rect x="25.8" y="202.5" class="st7" width="7.8" height="1.5"></rect>
				<rect x="19.1" y="202.5" class="st7" width="3.7" height="1.5"></rect>
				<rect x="31" y="205.9" class="st7" width="2.6" height="1.5"></rect>
				<rect x="19.1" y="205.9" class="st7" width="9.4" height="1.5"></rect>
				<rect x="31" y="216" class="st7" width="2.6" height="1.5"></rect>
				<rect x="19.1" y="216" class="st7" width="9.4" height="1.5"></rect>
				<rect x="25.4" y="209.3" class="st7" width="8.2" height="1.5"></rect>
				<rect x="19.1" y="209.3" class="st7" width="2" height="1.5"></rect>
				<rect x="25.4" y="219.4" class="st7" width="8.2" height="1.5"></rect>
				<rect x="19.1" y="219.4" class="st7" width="2" height="1.5"></rect>
				<rect x="29.8" y="212.6" class="st7" width="3.8" height="1.5"></rect>
				<rect x="19.1" y="212.6" class="st7" width="7.8" height="1.5"></rect>
			</g>
			<g>
				<rect x="49" y="196.3" class="st7" width="11.1" height="1.5"></rect>
				<rect x="39.5" y="196.3" class="st7" width="5.3" height="1.5"></rect>
				<rect x="56.3" y="199.7" class="st7" width="3.8" height="1.5"></rect>
				<rect x="39.5" y="199.7" class="st7" width="13.3" height="1.5"></rect>
				<rect x="48.4" y="203.1" class="st7" width="11.7" height="1.5"></rect>
				<rect x="39.5" y="203.1" class="st7" width="2.8" height="1.5"></rect>
				<rect x="54.7" y="206.5" class="st7" width="5.4" height="1.5"></rect>
				<rect x="39.5" y="206.5" class="st7" width="11" height="1.5"></rect>
			</g>
			<g>
				<path class="st7" d="M111.4,197.9h-36c-3.6,0-6.4-2.9-6.4-6.4v-10.3c0-3.6,2.9-6.4,6.4-6.4h36c3.6,0,6.4,2.9,6.4,6.4v10.3      C117.8,195,115,197.9,111.4,197.9z M75.4,176.2c-2.7,0-4.9,2.2-4.9,4.9v10.3c0,2.7,2.2,4.9,4.9,4.9h36c2.7,0,4.9-2.2,4.9-4.9      v-10.3c0-2.7-2.2-4.9-4.9-4.9H75.4z"></path>
				<path class="st7" d="M112.1,193.8H98.5v-14.9h13.7V193.8z M100,192.2h10.6v-11.8H100V192.2z"></path>
				<polygon class="st7" points="106.9,190.2 102.9,184.4 99.8,188.2 98.6,187.3 103,181.9 107,187.6 108.8,185.2 112,189.3       110.7,190.2 108.8,187.7     "></polygon>
				<g>
					<rect x="84.3" y="179.9" class="st7" width="11.1" height="1.5"></rect>
					<rect x="74.8" y="179.9" class="st7" width="5.3" height="1.5"></rect>
					<rect x="91.6" y="183.7" class="st7" width="3.8" height="1.5"></rect>
					<rect x="74.8" y="183.7" class="st7" width="13.3" height="1.5"></rect>
					<rect x="83.7" y="187.4" class="st7" width="11.7" height="1.5"></rect>
					<rect x="74.8" y="187.4" class="st7" width="2.8" height="1.5"></rect>
					<rect x="90" y="191.1" class="st7" width="5.4" height="1.5"></rect>
					<rect x="74.8" y="191.1" class="st7" width="11" height="1.5"></rect>
				</g>
			</g>
			<g>
				<path class="st7" d="M111.4,227.2h-36c-3.6,0-6.4-2.9-6.4-6.4v-10.3c0-3.6,2.9-6.4,6.4-6.4h36c3.6,0,6.4,2.9,6.4,6.4v10.3      C117.8,224.4,115,227.2,111.4,227.2z M75.4,205.6c-2.7,0-4.9,2.2-4.9,4.9v10.3c0,2.7,2.2,4.9,4.9,4.9h36c2.7,0,4.9-2.2,4.9-4.9      v-10.3c0-2.7-2.2-4.9-4.9-4.9H75.4z"></path>
				<path class="st7" d="M88.4,223.1H74.7v-14.9h13.7V223.1z M76.3,221.5h10.6v-11.8H76.3V221.5z"></path>
				<polygon class="st7" points="79.9,219.6 78,217.1 76.1,219.5 74.9,218.6 78,214.6 79.9,217 83.8,211.2 88.2,216.6 87,217.6       83.9,213.8     "></polygon>
				<g>
					<rect x="91.5" y="209.3" class="st7" width="11.1" height="1.5"></rect>
					<rect x="106.8" y="209.3" class="st7" width="5.3" height="1.5"></rect>
					<rect x="91.5" y="213" class="st7" width="3.8" height="1.5"></rect>
					<rect x="98.7" y="213" class="st7" width="13.3" height="1.5"></rect>
					<rect x="91.5" y="216.7" class="st7" width="11.7" height="1.5"></rect>
					<rect x="109.3" y="216.7" class="st7" width="2.8" height="1.5"></rect>
					<rect x="91.5" y="220.5" class="st7" width="5.4" height="1.5"></rect>
					<rect x="101" y="220.5" class="st7" width="11" height="1.5"></rect>
				</g>
			</g>
			<g>
				<rect x="15.7" y="159.9" class="st7" width="2.6" height="7.6"></rect>
				<rect x="19.7" y="161.2" class="st7" width="2.6" height="6.3"></rect>
				<rect x="23.7" y="162.8" class="st7" width="2.6" height="4.7"></rect>
				<rect x="27.4" y="164.9" class="st7" width="2.6" height="2.6"></rect>
			</g>
			<g>
				<rect x="39.8" y="155.5" class="st7" width="3.5" height="3"></rect>
				<rect x="39.8" y="159.6" class="st7" width="3.5" height="3"></rect>
				<rect x="39.8" y="163.7" class="st7" width="3.5" height="3"></rect>
				<rect x="39.8" y="167.8" class="st7" width="3.5" height="3"></rect>
				<rect x="47.3" y="156.3" class="st7" width="17.4" height="1.5"></rect>
				<rect x="47.3" y="160.4" class="st7" width="17.4" height="1.5"></rect>
				<rect x="47.3" y="164.4" class="st7" width="17.4" height="1.5"></rect>
				<rect x="47.3" y="168.5" class="st7" width="17.4" height="1.5"></rect>
			</g>
			<g>
				<rect x="69.8" y="155.5" class="st7" width="3.5" height="3"></rect>
				<rect x="69.8" y="159.6" class="st7" width="3.5" height="3"></rect>
				<rect x="69.8" y="163.7" class="st7" width="3.5" height="3"></rect>
				<rect x="69.8" y="167.8" class="st7" width="3.5" height="3"></rect>
				<rect x="77.3" y="156.3" class="st7" width="36.1" height="1.5"></rect>
				<rect x="77.3" y="160.4" class="st7" width="36.1" height="1.5"></rect>
				<rect x="77.3" y="164.4" class="st7" width="36.1" height="1.5"></rect>
				<rect x="77.3" y="168.5" class="st7" width="36.1" height="1.5"></rect>
			</g>
		</g>
	</g>
	<g>
		<g>
			<path class="st15" d="M134.1,149.5c-3.1,0.1-14.5-3.7-14.5-3.7s0-1.1-0.2-1.8c-0.2-0.7,0.3-2.1,0.1-2.1c-0.2-0.1-1.3,0.5-1.3,1.5     c0,1-0.4,2.8-4.5,2.8c-1.5,0-3.4-0.2-3.8-0.2c-0.5,0.1-0.3,0.9-0.1,0.9c0,0-0.6,0.5-0.7,0.7c0,0.2,0.5,0.6,0.5,0.6     s-0.1,0.8,0.4,1c0,0,0.3,0.5,1.2,0.8c0.9,0.3,3.2,0.7,4.2,0.5c1.1-0.2,1.8-0.8,2.7-1.1c0.5-0.2,1.1-0.2,1.7,0.1     c2.6,1.2,11.3,5.5,13.4,5.6C135.6,155.1,137.1,149.3,134.1,149.5z"></path>
			<path class="st16" d="M151.2,139.3c-1.5,3.1-6.2,5.9-8.5,7.1c-1.9,1-8.4,2.5-8.4,2.5l0.7,6.7c0,0,6.8-0.8,9.8-1.7     c4.2-1.3,12.2-4.9,14.7-10.3c1.7-3.7-0.7-8.1-3.8-7.8C153.5,136,151.6,138.4,151.2,139.3z"></path>
			<path class="st16" d="M133.6,157.5c0,0,3.5-1.3,3.6-1.5c0.1-0.3-2.4-9.2-2.8-9.1c-0.4,0.1-3,1.7-3,1.7S132.6,156.5,133.6,157.5z"></path>
		</g>
		<g>
			<path class="st5" d="M137.5,241.9c0-0.2,0.1-0.4,0.1-0.7c0.2-1.1,1.2-2,1.9-2.3c1.3-0.5,3.4-0.3,5.6-0.9c2.3-0.6,2.9-1.6,2.9-1.6     l3-0.3c0,0,0.8,3.3,1,5.2c0.1,0.7,0.1,1.2-0.1,1.3c-0.5,0.4-10.8,0.1-13.8,0.1C137.8,242.8,137.5,242.4,137.5,241.9z"></path>
			<path class="st17" d="M149.3,238.4c0.3,0,0.5,0,0.8-0.1c0.6-0.2,1-0.8,1.1-1.5l0.1-1.3l0.2-3.3l-3.9-0.1l0.2,3.9l0.1,0.9     C147.8,237.7,148.5,238.3,149.3,238.4z"></path>
		</g>
		<g>
			<path class="st5" d="M160,242.3c-0.1-0.2-0.1-0.4-0.2-0.7c-0.2-1.1,0.4-2.3,1-2.8c1.1-0.9,3-1.5,4.9-2.9c1.9-1.4,2.2-2.6,2.2-2.6     l2.7-1.4c0,0,2,2.8,2.8,4.5c0.3,0.6,0.5,1.1,0.4,1.2c-0.3,0.5-10.1,4-12.9,5C160.5,243,160.1,242.7,160,242.3z"></path>
			<path class="st17" d="M169.7,234.8c0.3-0.1,0.5-0.2,0.7-0.4c0.5-0.4,0.7-1.1,0.5-1.8l-0.4-1.3l-1-3.2l-3.7,1.3l1.6,3.5l0.4,0.9     C168,234.6,168.9,235,169.7,234.8z"></path>
		</g>
		<path class="st5" d="M165.4,174.2c-0.7-3.1-14.2-2-14.2-2s0,0.7,0.1,1.7c-1.9-0.8-5.2-2.7-8.6-1.9c0,0-1.4,10.7-1.1,22.4    c0.2,11.6,4.8,40.5,4.8,40.5h6.5c0,0-0.6-31.5,0.6-43.9c0.8,5.2,2.4,16.1,3.7,21.6c2.2,9,9,20.5,9,20.5l5.5-1.2    c-2.2-9.9-4.3-14.9-4.5-21.7C166.7,197.9,167.7,184.2,165.4,174.2z"></path>
		<path class="st2" d="M153.8,134.4c0,0,6.8,0.1,8.9,6.1c2.1,6,4.7,30,4.1,35.5c0,0-16.8,3.2-25.2-0.8c0,0,2.5-19.9,2.9-24.4    C144.8,146.2,148.1,135.2,153.8,134.4z"></path>
		<path class="st18" d="M153.5,190.9c0,0-1.6-7.8-2-11.5c0,0,0.2,9.6,1.8,13.9L153.5,190.9z"></path>
		<path class="st18" d="M157.9,178.6c0,0-1.3,5.2-0.2,6.5c1.1,1.3,4.2,1.9,4.9,1.6c1.7-0.7,1.7-4.9,1.7-4.9S160.3,180.8,157.9,178.6    z"></path>
		<g>
			
				<rect x="103.1" y="120.3" transform="matrix(-1 -1.224647e-16 1.224647e-16 -1 214.0565 281.5052)" class="st0" width="7.8" height="41"></rect>
			<path class="st1" d="M107,106.9L107,106.9c3.8,0,6.9,3.1,6.9,6.9v7.5c0,3.8-3.1,6.9-6.9,6.9h0c-3.8,0-6.9-3.1-6.9-6.9v-7.5     C100.2,110,103.2,106.9,107,106.9z"></path>
			<g>
				<path class="st0" d="M110.8,181.7h18.7c0.7,0,1.3-0.6,1.3-1.3l0,0c0-0.7-0.6-1.3-1.3-1.3h-18.7c-0.7,0-1.3,0.6-1.3,1.3l0,0      C109.5,181.1,110.1,181.7,110.8,181.7z"></path>
				<path class="st0" d="M103.2,181.7H84.6c-0.7,0-1.3-0.6-1.3-1.3l0,0c0-0.7,0.6-1.3,1.3-1.3h18.7c0.7,0,1.3,0.6,1.3,1.3l0,0      C104.6,181.1,104,181.7,103.2,181.7z"></path>
				<polygon class="st0" points="126.7,241 127.7,243.2 128.8,241 128.8,233.9 126.7,233.9     "></polygon>
				<polygon class="st0" points="87.4,241 86.3,243.2 85.2,241 85.2,233.9 87.4,233.9     "></polygon>
				<polygon class="st1" points="131.1,234.2 125.8,234.5 125.5,220.1 110.6,159.7 113.4,150.1 117,149 133.5,219.6     "></polygon>
				<polygon class="st1" points="83,234.2 88.2,234.5 88.5,220.1 103.4,159.7 100.7,150.1 97.1,149 80.5,219.6     "></polygon>
			</g>
			<path class="st19" d="M92.5,146.3c0-8,6.5-14.5,14.5-14.5s14.5,6.5,14.5,14.5s-6.5,14.5-14.5,14.5S92.5,154.3,92.5,146.3z"></path>
			<path class="st0" d="M97.2,146.3c0-5.4,4.4-9.8,9.8-9.8c5.4,0,9.8,4.4,9.8,9.8c0,5.4-4.4,9.8-9.8,9.8     C101.6,156.1,97.2,151.7,97.2,146.3z"></path>
			<circle class="st3" cx="107" cy="146.3" r="8.1"></circle>
		</g>
		<path class="st20" d="M151.9,130.2c0,0,0.7,4.7,0,7.4c-0.1,0.5,0.2,1,0.7,1.2c2,0.7,4.6-1.9,5.9-2.8c0.3-1.5-0.5-7.3-0.5-7.3    L151.9,130.2z"></path>
		<path class="st20" d="M135.8,154.7c-3.1,0.1-14.5-3.7-14.5-3.7s0-1.1-0.2-1.8c-0.2-0.7,0.3-2.1,0.1-2.1c-0.2-0.1-1.3,0.5-1.3,1.5    c0,1-0.4,2.8-4.5,2.8c-1.5,0-3.4-0.2-3.8-0.2c-0.5,0.1-0.3,0.9-0.1,0.9c0,0-0.6,0.5-0.7,0.7c0,0.2,0.5,0.6,0.5,0.6s-0.1,0.8,0.4,1    c0,0,0.3,0.5,1.2,0.8c0.9,0.3,3.2,0.7,4.2,0.5c1.1-0.2,1.8-0.8,2.7-1.1c0.5-0.2,1.1-0.2,1.7,0.1c2.6,1.2,11.3,5.5,13.4,5.6    C137.4,160.4,138.9,154.6,135.8,154.7z"></path>
		<path class="st21" d="M153,144.5c-1.4,3.1-6.2,5.9-8.5,7.1c-1.9,1-8.4,2.5-8.4,2.5l0.7,6.7c0,0,6.8-0.8,9.8-1.7    c4.2-1.3,12.2-4.9,14.7-10.3c1.7-3.7-0.7-8.1-3.8-7.8C155.2,141.2,153.4,143.7,153,144.5z"></path>
		<path class="st21" d="M135.3,162.8c0,0,3.5-1.3,3.6-1.5c0.1-0.3-2.4-9.2-2.8-9.1c-0.4,0.1-3,1.7-3,1.7S134.3,161.8,135.3,162.8z"></path>
		<path class="st20" d="M154.8,117.3c-3.8,0-6.9,3.6-6.9,8.1c0,0.3,0,0.5,0,0.8c-0.3,0.3-0.7,0.8-0.5,1.3c0.1,0.3,0.4,0.4,0.8,0.4    c0.9,3.2,3.5,5.5,6.6,5.5c3.8,0,6.9-3.6,6.9-8.1C161.7,120.9,158.6,117.3,154.8,117.3z"></path>
		<path class="st5" d="M164.6,121.4c-0.5-6.9-9-9.7-12.2-9.2c-0.4,0.1-0.1,0.7,0.3,1.2c-3.9-0.4-8.2,0.3-8.9,4.6    c-0.5,3.1,7.6,4.5,13.2,3.8c0.4-0.1,0.9,0,1.3,0.2c0.4,0.3,0.9,1.4,0.3,3.8c0.5-0.4,1.5-1,2-0.2c0.3,0.6,0.1,1.9-1.6,2.4    c-0.7,1.6-0.4,3.3-0.2,4.3C158.8,132.2,164.9,126.2,164.6,121.4z"></path>
	</g>
	<g>
		<g>
			<path class="st22" d="M370.5,146.1c0,0.1-0.4,0.9,0.1,1c0,0,0,0.1,0.5,0c0,0,0.3,0.7,1.1,0.6c0,0,2.8,0,2.8,0     c0.8-0.1,2.6-0.3,3.7-2c0,0,13.2-2.3,14.7-3.6c1.5-1.3,4.2-9,4.2-9l-4.5-2.8c0,0-1.8,7-3.6,8c-1.8,1-11.3,4.9-11.3,4.9     s-1.8-1.4-2.5-1.4c-0.3,0-3.1,0.2-3.1,0.8c0,0.4,0.6,0.6,1,0.6c0.5,0,1.8-0.1,1.9-0.1c0.1,0,0,0.1-0.1,0.2c-0.5,0.3-2,0.7-3,1.1     c-1.2,0.5-2.1,1-2.2,1.2C370.1,146,370.4,146.1,370.5,146.1z"></path>
			<path class="st23" d="M403.9,224c0,0-0.1,0.7,0.1,1.2c0.2,0.4,5.3,1.4,10.2,0.5c0.4-0.1,0.7-0.5,0.7-0.9l0-0.6L403.9,224z"></path>
			<path class="st23" d="M403.9,223.9c0.3-0.9,5.2-1.6,6.9-1.7c1.9-0.1,0.1-1.3,1.7-1.1c1.6,0.2,1.6,0.2,1.6,0.2s0.6,1,0.7,2.7     c0,0.1,0,0.2,0,0.3c0,1.1-3.3,1-6.3,1c-2,0-3.6-0.1-4.5-1C403.9,224.1,403.8,224,403.9,223.9z"></path>
			<path class="st24" d="M414.5,217l0,5.2c0,0-5,1-3.8,0l-0.4-4.8L414.5,217z"></path>
			<path class="st23" d="M387.3,224c0,0-0.2,0.7,0,1.2c0.1,0.4,5.2,1.8,10.1,1.4c0.4,0,0.8-0.4,0.8-0.8l0-0.6L387.3,224z"></path>
			<path class="st23" d="M387.3,223.9c0.4-0.9,5.3-1.1,7-1.1c1.9,0.1,0.3-1.3,1.8-1c1.5,0.3,1.5,0.3,1.5,0.3s0.5,1.1,0.5,2.7     c0,0.1,0,0.2,0,0.3c-0.1,1.1-3.4,0.7-6.4,0.4c-2-0.2-3.6-0.4-4.4-1.4C387.3,224.2,387.3,224,387.3,223.9z"></path>
			<path class="st24" d="M398.5,218l-0.5,5.1c0,0-5,0.5-3.8-0.3l0.1-4.8L398.5,218z"></path>
			<path class="st5" d="M395.4,159.9c0,0,14.5-13,22.1-5.9c6.3,12-1.6,35.6-1.8,43.9c-0.1,6.7-0.2,13-0.5,22l-5.4-0.1     c0,0-1.8-8.8-2.7-21.3c-0.4-5.6-1-13.5-0.2-22.4l-1.5,0.1c0,0-3.1,13.6-4.1,20.9c-0.9,6.9-1.7,15-2.1,22.8l-6.1-0.2     c0,0-1.1-15.1-1-22.9C392.3,186.4,392.2,168.1,395.4,159.9z"></path>
			<path class="st25" d="M384,111c0,0,0.3,2.4,0.6,3.4c0.3,1-0.6,1.7-0.6,2c0,0.3,0.9,0.7,0.9,0.7s0,3.3,1.2,3.8     c1.2,0.5,3.8-0.7,3.8-0.7l1.6,3.3c0,0,4.2,0.2,6.6-3.6l-1.5-3.1c0,0-0.2-6.6-3.9-8.8C389.1,105.8,384,111,384,111z"></path>
			<g>
				<path class="st3" d="M310.5,160.1h54.8c7,0,12.6-5.6,12.6-12.6l0,0c0-7-5.6-12.6-12.6-12.6h-54.8c-7,0-12.6,5.6-12.6,12.6l0,0      C297.9,154.4,303.5,160.1,310.5,160.1z"></path>
				<g>
					<path class="st4" d="M311.2,143.1h3.8c0.7,0,1.3,0,1.7,0.1c0.4,0.1,0.7,0.2,1,0.4c0.3,0.2,0.5,0.5,0.7,0.8       c0.2,0.3,0.3,0.7,0.3,1.1c0,0.4-0.1,0.9-0.4,1.2c-0.2,0.4-0.6,0.6-1,0.8c0.6,0.2,1,0.5,1.3,0.9c0.3,0.4,0.5,0.9,0.5,1.4       c0,0.4-0.1,0.8-0.3,1.3c-0.2,0.4-0.5,0.7-0.8,1c-0.3,0.2-0.8,0.4-1.3,0.4c-0.3,0-1.1,0.1-2.3,0.1h-3.2V143.1z M313.1,144.7v2.2       h1.3c0.7,0,1.2,0,1.4,0c0.3,0,0.6-0.2,0.8-0.3c0.2-0.2,0.3-0.4,0.3-0.7c0-0.3-0.1-0.5-0.2-0.7c-0.2-0.2-0.4-0.3-0.7-0.3       c-0.2,0-0.7,0-1.6,0H313.1z M313.1,148.5v2.5h1.8c0.7,0,1.1,0,1.3-0.1c0.3-0.1,0.5-0.2,0.7-0.4c0.2-0.2,0.3-0.5,0.3-0.8       c0-0.3-0.1-0.5-0.2-0.7c-0.1-0.2-0.3-0.3-0.6-0.4c-0.3-0.1-0.8-0.1-1.7-0.1H313.1z"></path>
					<path class="st4" d="M321.1,143.1h1.9v5.1c0,0.8,0,1.3,0.1,1.6c0.1,0.4,0.3,0.7,0.6,0.9c0.3,0.2,0.7,0.4,1.3,0.4       c0.5,0,1-0.1,1.2-0.3c0.3-0.2,0.4-0.5,0.5-0.8c0.1-0.3,0.1-0.9,0.1-1.6v-5.2h1.9v5c0,1.1-0.1,1.9-0.2,2.4       c-0.1,0.5-0.3,0.9-0.6,1.2c-0.3,0.3-0.6,0.6-1.1,0.8c-0.5,0.2-1.1,0.3-1.8,0.3c-0.9,0-1.6-0.1-2.1-0.3       c-0.5-0.2-0.8-0.5-1.1-0.8c-0.3-0.3-0.4-0.7-0.5-1c-0.1-0.5-0.2-1.3-0.2-2.4V143.1z"></path>
					<path class="st4" d="M333.1,152.6v-7.9h-2.8v-1.6h7.5v1.6H335v7.9H333.1z"></path>
					<path class="st4" d="M341.9,152.6v-7.9h-2.8v-1.6h7.5v1.6h-2.8v7.9H341.9z"></path>
					<path class="st4" d="M347.7,147.9c0-1,0.1-1.8,0.4-2.4c0.2-0.5,0.5-0.9,0.9-1.3c0.4-0.4,0.8-0.7,1.2-0.9c0.6-0.2,1.3-0.4,2-0.4       c1.4,0,2.5,0.4,3.3,1.3c0.8,0.9,1.3,2.1,1.3,3.6c0,1.5-0.4,2.7-1.2,3.6c-0.8,0.9-1.9,1.3-3.3,1.3c-1.4,0-2.5-0.4-3.4-1.3       C348.1,150.6,347.7,149.4,347.7,147.9z M349.6,147.9c0,1.1,0.2,1.9,0.7,2.4c0.5,0.6,1.1,0.8,1.9,0.8s1.4-0.3,1.9-0.8       c0.5-0.5,0.7-1.4,0.7-2.5c0-1.1-0.2-1.9-0.7-2.4c-0.5-0.5-1.1-0.8-1.9-0.8c-0.8,0-1.4,0.3-1.9,0.8       C349.9,145.9,349.6,146.8,349.6,147.9z"></path>
					<path class="st4" d="M358.8,152.6v-9.5h1.9l3.9,6.3v-6.3h1.8v9.5h-1.9l-3.8-6.2v6.2H358.8z"></path>
				</g>
			</g>
			<path class="st25" d="M356.6,147.7c-0.1,0.1-0.7,0.8-0.2,1c0,0,0,0.1,0.5,0.2c0,0,0.1,0.8,0.9,0.8c0,0,2.7,0.7,2.7,0.7     c0.8,0.1,2.6,0.4,4.1-0.9c0,0,13.4,1.4,15.2,0.6c1.8-0.9,6.5-7.5,6.5-7.5l-3.5-3.9c0,0-3.7,6.2-5.7,6.7c-2,0.5-12.2,1.6-12.2,1.6     s-1.3-1.8-2-2c-0.3-0.1-3-0.7-3.2-0.2c-0.1,0.4,0.3,0.6,0.6,0.7c0.6,0.3,2,0.6,2,0.6c0,0.1,0,0.1-0.2,0.1     c-0.5,0.1-2.2,0.1-3.1,0.2c-1.3,0.1-2.3,0.4-2.4,0.5C356.2,147.4,356.5,147.7,356.6,147.7z"></path>
			<path class="st23" d="M385.5,146.3c-1.1-3.4-5.6-7-5.6-7c3-2.7,4.5-14.4,13.8-18.1c1.3-0.5,5.5-2.3,8.5-0.1     c16.1,11.7,18.2,41.1,18.2,41.1c-11.1,3-27.8,0.8-27.8,0.8c0.1-1.9,3-9.8,2.4-13.8c-0.5-3.4-5.6-6.2-5.5-10.8     C388.5,142.1,385.5,146.3,385.5,146.3z"></path>
			<path class="st5" d="M402.3,106.2c-3.6-0.6-6-0.9-7.4-2.6c-2.3-2.8-6.1-1.7-8.6-0.6c-2,0.9-3.3,2.7-5,3.5c-1.7,0.9-2.7-1.3-3-0.6     c-0.4,0.7,0,2.6,2.5,4.1c1.4,0.9,2.6,0.7,3.3,0.5c0.7,0.7,1.6,1.3,2.7,1.6c2.7,0.7,3.6,2.6,2.9,4.2c-0.7,1.6,0.4,2.6,1.7,3.5     c1.3,0.9-0.5,6.8,2.3,8.2c2.8,1.5,6.1,1.3,7.2,4.1c1.1,2.8,8.2,5.9,11.7,2.5c3.6-3.5,7.6-11.8,2.6-14.9c-5-3.2-7-5.3-7.5-7.4     C407.2,110.2,405.9,106.8,402.3,106.2z"></path>
		</g>
	</g>
	<g>
		<g>
			<path class="st0" d="M289.1,171.5h-39.5c-1.5,0-2.8-1.2-2.8-2.8l0,0c0-1.5,1.2-2.8,2.8-2.8h39.5c1.5,0,2.8,1.2,2.8,2.8l0,0     C291.9,170.3,290.7,171.5,289.1,171.5z"></path>
			<rect x="250.1" y="187.7" class="st0" width="40" height="4.3"></rect>
			<rect x="244.3" y="208.3" class="st0" width="50.2" height="4.3"></rect>
			<polygon class="st0" points="296.9,224.5 283.4,168.8 287.1,168.8 300.5,224.5    "></polygon>
			<polygon class="st0" points="240,224.5 253.5,168.8 257.1,168.8 243.7,224.5    "></polygon>
		</g>
		<g>
			<g>
				<defs>
					<path id="SVGID_1_" d="M181.6,87.5l119.8,41.8c0.9,0.3,1.9-0.2,2.3-1.1l4.8-13.8c0.3-0.9-0.2-1.9-1.1-2.3L187.6,70.3       c-0.9-0.3-1.9,0.2-2.3,1.1l-4.8,13.8C180.2,86.2,180.7,87.2,181.6,87.5z"></path>
				</defs>
				<use xlink:href="#SVGID_1_" style="overflow:visible;fill:#C0D8DF;"></use>
				<clipPath id="SVGID_2_">
					<use xlink:href="#SVGID_1_" style="overflow:visible;"></use>
				</clipPath>
				<g class="st26">
					<g>
						
							<rect x="302" y="108.6" transform="matrix(-0.9442 -0.3294 0.3294 -0.9442 551.0391 323.325)" class="st2" width="1.7" height="12.8"></rect>
						
							<rect x="299" y="107.4" transform="matrix(-0.9443 -0.3291 0.3291 -0.9443 546.5038 314.7543)" class="st2" width="1.7" height="7.5"></rect>
						
							<rect x="295.1" y="106" transform="matrix(-0.9442 -0.3294 0.3294 -0.9442 539.2648 310.8631)" class="st2" width="1.7" height="7.5"></rect>
					</g>
					<g>
						
							<rect x="290.7" y="104.6" transform="matrix(-0.9442 -0.3295 0.3295 -0.9442 530.1866 311.8844)" class="st2" width="1.7" height="12.8"></rect>
						
							<rect x="287.6" y="103.4" transform="matrix(-0.9441 -0.3295 0.3295 -0.9441 525.5939 303.3835)" class="st2" width="1.7" height="7.5"></rect>
						
							<rect x="283.7" y="102" transform="matrix(-0.9442 -0.3294 0.3294 -0.9442 518.438 299.3912)" class="st2" width="1.7" height="7.5"></rect>
					</g>
					<g>
						
							<rect x="279.3" y="100.6" transform="matrix(-0.9442 -0.3295 0.3295 -0.9442 509.3621 300.4108)" class="st2" width="1.7" height="12.8"></rect>
						
							<rect x="276.3" y="99.4" transform="matrix(-0.9441 -0.3295 0.3295 -0.9441 504.7692 291.9092)" class="st2" width="1.7" height="7.5"></rect>
						
							<rect x="272.3" y="98" transform="matrix(-0.9441 -0.3295 0.3295 -0.9441 497.5848 287.9513)" class="st2" width="1.7" height="7.5"></rect>
					</g>
					<g>
						
							<rect x="267.9" y="96.7" transform="matrix(-0.9441 -0.3295 0.3295 -0.9441 488.5342 288.9406)" class="st2" width="1.7" height="12.8"></rect>
						
							<rect x="264.9" y="95.4" transform="matrix(-0.9442 -0.3294 0.3294 -0.9442 483.9707 280.4044)" class="st2" width="1.7" height="7.5"></rect>
						
							<rect x="260.9" y="94.1" transform="matrix(-0.9441 -0.3295 0.3295 -0.9441 476.7599 276.4782)" class="st2" width="1.7" height="7.5"></rect>
					</g>
					<g>
						
							<rect x="256.5" y="92.7" transform="matrix(-0.9442 -0.3294 0.3294 -0.9442 467.7353 277.4365)" class="st2" width="1.7" height="12.8"></rect>
						
							<rect x="253.5" y="91.5" transform="matrix(-0.9442 -0.3295 0.3295 -0.9442 463.121 268.9591)" class="st2" width="1.7" height="7.5"></rect>
						
							<rect x="249.6" y="90.1" transform="matrix(-0.9442 -0.3295 0.3295 -0.9442 455.9378 265.0013)" class="st2" width="1.7" height="7.5"></rect>
					</g>
					<g>
						
							<rect x="245.1" y="88.7" transform="matrix(-0.9443 -0.329 0.329 -0.9443 446.9795 265.8802)" class="st2" width="1.7" height="12.8"></rect>
						
							<rect x="242.1" y="87.5" transform="matrix(-0.9441 -0.3295 0.3295 -0.9441 442.2934 257.489)" class="st2" width="1.7" height="7.5"></rect>
						
							<rect x="238.2" y="86.1" transform="matrix(-0.9443 -0.3291 0.3291 -0.9443 435.1783 253.4491)" class="st2" width="1.7" height="7.5"></rect>
					</g>
					<g>
						
							<rect x="233.7" y="84.7" transform="matrix(-0.9441 -0.3295 0.3295 -0.9441 426.0587 254.5196)" class="st2" width="1.7" height="12.8"></rect>
						
							<rect x="230.7" y="83.5" transform="matrix(-0.9441 -0.3295 0.3295 -0.9441 421.4686 246.0151)" class="st2" width="1.7" height="7.5"></rect>
						
							<rect x="226.8" y="82.2" transform="matrix(-0.9441 -0.3295 0.3295 -0.9441 414.2846 242.0572)" class="st2" width="1.7" height="7.5"></rect>
					</g>
					<g>
						
							<rect x="222.3" y="80.8" transform="matrix(-0.9441 -0.3295 0.3295 -0.9441 405.2343 243.0458)" class="st2" width="1.7" height="12.8"></rect>
						
							<rect x="219.3" y="79.6" transform="matrix(-0.9443 -0.3291 0.3291 -0.9443 400.7072 234.4661)" class="st2" width="1.7" height="7.5"></rect>
						
							<rect x="215.4" y="78.2" transform="matrix(-0.9441 -0.3295 0.3295 -0.9441 393.4592 230.5828)" class="st2" width="1.7" height="7.5"></rect>
					</g>
					<g>
						
							<rect x="211" y="76.8" transform="matrix(-0.9442 -0.3294 0.3294 -0.9442 384.4304 231.5475)" class="st2" width="1.7" height="12.8"></rect>
						
							<rect x="207.9" y="75.6" transform="matrix(-0.9441 -0.3295 0.3295 -0.9441 379.819 223.0681)" class="st2" width="1.7" height="7.5"></rect>
						
							<rect x="204" y="74.2" transform="matrix(-0.9441 -0.3295 0.3295 -0.9441 372.635 219.1102)" class="st2" width="1.7" height="7.5"></rect>
					</g>
					<g>
						
							<rect x="199.6" y="72.8" transform="matrix(-0.9441 -0.3295 0.3295 -0.9441 363.5834 220.0986)" class="st2" width="1.7" height="12.8"></rect>
						
							<rect x="196.6" y="71.6" transform="matrix(-0.9442 -0.3295 0.3295 -0.9442 358.9952 211.5914)" class="st2" width="1.7" height="7.5"></rect>
						
							<rect x="192.6" y="70.2" transform="matrix(-0.9441 -0.3295 0.3295 -0.9441 351.8103 207.636)" class="st2" width="1.7" height="7.5"></rect>
					</g>
					<g>
						
							<rect x="188.2" y="68.8" transform="matrix(-0.9443 -0.3291 0.3291 -0.9443 342.8138 208.5606)" class="st2" width="1.7" height="12.8"></rect>
					</g>
				</g>
			</g>
		</g>
		<g>
			<path class="st27" d="M251.9,101.2c-1.8-1.3-10.1-8.9-10.1-8.9s0.5-2.4,0.2-3.1c-0.1-0.3-0.3-0.9-0.8-1.3c0,0-1.5-1.1-2-1.2     c-0.4-0.1-0.3,0.7-0.1,1.1c0.2,0.3,1.4,1.5,1.4,1.5c0.1,0.1,0.1,0.2,0.1,0.3c0,0.1-0.1,0-0.2-0.1c-0.5-0.4-1.6-1.7-2.4-2.4     c-1-0.9-1.9-1.6-2.2-1.6c-0.4,0-0.4,0.4-0.4,0.5c-0.1,0-1.1,0-1,0.6c0,0-0.1,0,0.2,0.5c0,0-0.5,0.6-0.1,1.3c0,0,1.3,2.7,1.3,2.7     c0.5,0.7,1.5,2.4,3.7,2.8c0,0,7.3,10.8,9.3,11.6c2,0.9,9.7,4.5,9.7,4.5l0.7-5.7C259.4,104.3,253.8,102.5,251.9,101.2z"></path>
			<g>
				<path class="st21" d="M252,208.7c0.4-1,6.2-1.6,8.2-1.7c2.3-0.1,0.3-1.4,2.1-1.2c1.8,0.3,1.8,0.3,1.8,0.3s0.7,1.2,0.6,2.9      c0,0.1,0,0.2,0,0.4c-0.1,1.2-3.9,1-7.4,0.7c-2.2-0.2-4.3,0-5.3-1C252,209,252,208.9,252,208.7z"></path>
				<path class="st27" d="M264.9,201.7l-0.3,5.5c0,0-4.9,0.7-4-0.2l-0.3-5.2L264.9,201.7z"></path>
				<path class="st21" d="M270.4,207.2c0.5-1,5.8-1.1,7.7-1c2.1,0.1,0.3-1.4,2-1c1.7,0.4,1.7,0.4,1.7,0.4s0.6,1.2,0.5,3      c0,0.1,0,0.2,0,0.3c-0.1,1.2-3.6,0.7-6.9,0.1c-2-0.4-4-0.4-4.8-1.4C270.4,207.4,270.3,207.3,270.4,207.2z"></path>
				<path class="st27" d="M282.7,201l-0.6,5.5c0,0-4.7,0.5-4.2-0.3l0.2-5.2L282.7,201z"></path>
				<path class="st5" d="M261.9,138.8c0,0,14.4,4.6,25.5,2.4c0,0,1.1,15.2-3.9,62.9l-5.8-0.2c0,0-1.7-9.8-2.6-49.2l-1.2-0.1      c0,0-4.6,33.5-7.7,49.4l-6.6-0.3C259.5,203.8,259.4,153.1,261.9,138.8z"></path>
				<path class="st27" d="M291.4,112.3c0,0,2,8.2,4.1,7.1c1.5-0.8,4.2-8.5,4.2-8.5l2.1,0.4c0,0-1.1,14.3-5.6,16.2      c-1.6,0.7-7.9-6.4-7.9-6.4l-2.9-6.8L291.4,112.3z"></path>
				<path class="st12" d="M254.1,110.3c0.3-3.9,1.7-8.7,1.7-8.7c6,1.4,12.3-1,19.3-1.6c1.5-0.1,7.5,0,10.9,2c3.9,2.3,7,9.1,7.6,11.2      c0,0-2.6,0.6-5,0.8c0.7,10.1,0.7,28.8,0.7,28.8c-12.1,1.2-28.8-3.1-28.8-3.1c0.4-3.5,1.7-15.6,1.9-29.1      C258.2,111.2,254.1,110.3,254.1,110.3z"></path>
				<path class="st27" d="M269,85.1c0,0-0.7,2.3-0.9,3.3c-0.2,1-1.2,1.2-1.4,1.5c-0.1,0.3,0.5,1,0.5,1s-1.4,3-0.5,3.9      c0.8,1,3.7,1,3.7,1v5c0,0,3.7,2,7.4-0.5v-4.8c0,0,2.6-5.9,0.3-9.5C275.8,82.6,269,85.1,269,85.1z"></path>
				<path class="st28" d="M266.6,83.1c-0.4-1.6,0.2-2.6,1.9-2.2c3.2,0.7,5.1-2.1,9.8,0.2c0.9,0.4,1.7,1,2.4,1.7      c0-0.5-0.1-1.1-0.1-1.1c0.4,0.6,0.6,1.2,0.6,1.7c0.5,0.1,1.8,0.4,2,1c0,0-0.8-0.3-1.5-0.2c2.1,3.1,2.2,7.5-1.4,11      c-2.2,2.1-5.3,0.3-6.4-1.7c0,0,2,0.2,2.1-1.2c0.1-1.1-0.8-1.9-1.5-1.3c-1.2,0.8-1,0.9-1.5,0.9c0,0,0.5-2,0.2-3.6      c0,0-5.1-0.8-6.2-3.4c0,0,0.8,0.5,1.1,0.5C268.1,85.3,267,84.7,266.6,83.1z"></path>
			</g>
			<path class="st27" d="M299.4,111.8c0,0-1-0.4-1.7-1c-0.6-0.6-1-2.8,0-1.9c1.4,1.3,1.2,0.3,1.4-0.2c0.2-0.3,0.6-0.9,1.3-0.2     c0,0,0.8-0.8,1.2,0.1c0,0,1.3-0.1,1.3,0.5c0,0,1,0.2,0.8,0.8c-0.2,0.7-1.9,2.2-1.9,2.2L299.4,111.8z"></path>
		</g>
	</g>
</g>
</svg>